<svg version="1.1" id="Layer_1" xmlns="http://www.w3.org/2000/svg" xmlns:xlink="http://www.w3.org/1999/xlink" x="0px" y="0px"
	 width="100%" viewBox="0 0 1024 1024" enable-background="new 0 0 1024 1024" xml:space="preserve">
<path fill="#FFFFFF" opacity="1.000000" stroke="none" 
	d="
M383.264984,758.348999 
	C363.760529,768.956116 344.427948,779.157654 323.436066,785.474365 
	C306.967682,790.429932 291.749512,782.864685 285.850250,767.682129 
	C279.924744,752.432007 286.083221,736.031006 301.193237,728.366272 
	C311.430634,723.173279 322.133667,718.907166 332.503815,713.965088 
	C352.894562,704.247314 372.209534,692.786499 388.942688,677.432983 
	C410.067078,658.050293 425.721893,634.865173 435.547424,607.956177 
	C455.930664,552.132690 476.026672,496.204285 496.246033,440.320953 
	C498.794983,433.276062 501.384583,426.245880 503.933716,419.201050 
	C504.487976,417.669342 505.378632,416.174194 504.626373,414.039276 
	C496.027863,411.406067 487.015656,411.517242 478.188782,412.841248 
	C440.363312,418.514832 416.123291,441.220184 401.466431,475.369110 
	C396.726501,486.412781 393.879456,498.046051 392.256287,509.991516 
	C389.431396,530.781311 370.102783,543.670044 351.322479,537.450439 
	C337.968018,533.027710 328.898956,517.718750 331.313293,503.826813 
	C335.720673,478.466858 341.699921,453.567596 354.520538,430.940948 
	C379.204895,387.376251 416.314453,361.220520 465.671692,352.599030 
	C507.400940,345.309967 547.013306,353.480042 585.592712,369.166962 
	C589.099182,370.592712 588.789673,372.750122 587.755920,375.566833 
	C581.846985,391.667572 576.078613,407.820099 570.121643,423.902924 
	C553.813599,467.932587 537.434631,511.936035 521.093079,555.953308 
	C520.922974,556.411499 520.879150,556.916565 520.659546,557.949402 
	C525.637878,560.151978 531.152283,560.369751 536.365417,561.649292 
	C559.122253,567.234375 582.332275,570.840027 604.803894,577.708862 
	C645.787720,590.236389 668.247803,625.443726 671.375427,662.710510 
	C674.278809,697.305298 662.180786,727.467163 643.624390,755.573425 
	C632.963501,771.720886 620.935730,786.866394 607.369873,800.717285 
	C597.067810,811.235840 584.892456,816.211609 570.232727,811.836365 
	C553.574829,806.864807 542.092957,784.665283 556.564514,765.276245 
	C564.325134,754.878479 573.401062,745.468445 581.285095,735.155212 
	C592.941223,719.907776 603.854431,704.179260 607.980591,684.839050 
	C612.371399,664.258728 602.496033,645.637512 582.782471,638.442749 
	C569.132996,633.461121 554.668091,631.724792 540.571716,628.528931 
	C529.384583,625.992676 518.123535,623.778076 506.876862,621.512085 
	C503.513672,620.834473 500.880981,620.799866 499.188568,625.190979 
	C476.734772,683.449341 437.673004,727.364197 383.264984,758.348999 
z"/>
<path fill="#FFFFFF" opacity="1.000000" stroke="none" 
	d="
M568.634888,524.040039 
	C565.779480,522.446899 567.461243,520.656555 568.032043,519.150513 
	C574.580078,501.872589 581.334595,484.671692 587.734802,467.339752 
	C589.308289,463.078857 591.468811,461.407776 596.109436,461.587524 
	C619.069214,462.476898 638.959290,455.326630 655.046997,438.461792 
	C664.594910,428.452576 670.242981,416.322632 674.725586,403.495972 
	C675.878235,400.197968 676.980042,396.868805 678.372009,393.670105 
	C683.681885,381.468842 696.868103,374.580627 710.385803,376.825409 
	C723.885254,379.067108 734.132996,390.377991 735.419739,403.650879 
	C736.843506,418.337158 731.450928,431.204437 725.033020,443.649445 
	C705.595581,481.340942 676.678833,508.080139 635.124268,519.702454 
	C625.145203,522.493469 614.888550,523.768921 604.543823,523.959229 
	C592.719177,524.176819 580.888916,524.090515 568.634888,524.040039 
z"/>
<path fill="#FFFFFF" opacity="1.000000" stroke="none" 
	d="
M621.781799,311.735229 
	C594.661377,342.663849 542.064453,338.045929 523.398499,299.062775 
	C511.033508,273.238953 518.584473,240.848434 540.861633,225.050003 
	C574.747437,201.019012 625.097229,214.634323 635.223328,261.123657 
	C639.322998,279.945312 633.887329,296.642273 621.781799,311.735229 
z"/>
</svg>